<?xml version="1.0"?>
<svg xmlns="http://www.w3.org/2000/svg" xmlns:xlink="http://www.w3.org/1999/xlink" version="1.1" id="Capa_1" x="0px" y="0px" viewBox="0 0 512 512" style="enable-background:new 0 0 512 512;" xml:space="preserve" width="512px" height="512px"><g><g>
	<g>
		<path d="M316.617,301.124c-4.142,0-7.5,3.358-7.5,7.5v20.868c0,4.143,3.358,7.5,7.5,7.5c4.142,0,7.5-3.357,7.5-7.5v-20.868    C324.117,304.483,320.759,301.124,316.617,301.124z" data-original="#000000" class="active-path" data-old_color="#e95678" fill="#e95678"/>
	</g>
</g><g>
	<g>
		<path d="M195.383,301.124c-4.142,0-7.5,3.358-7.5,7.5v20.868c0,4.143,3.358,7.5,7.5,7.5c4.142,0,7.5-3.357,7.5-7.5v-20.868    C202.883,304.483,199.525,301.124,195.383,301.124z" data-original="#000000" class="active-path" data-old_color="#e95678" fill="#e95678"/>
	</g>
</g><g>
	<g>
		<path d="M193.212,62.381c-28.348-33.292-70.31-49.475-128.287-49.476C29.125,12.907,0,42.032,0,77.831v83.599    c0,4.142,3.358,7.5,7.5,7.5s7.5-3.358,7.5-7.5V77.831c0-24.98,18.442-45.734,42.425-49.363v236.864    C33.442,261.704,15,240.949,15,215.969V191.43c0-4.142-3.358-7.5-7.5-7.5s-7.5,3.358-7.5,7.5v24.539    c0,35.8,29.125,64.925,64.925,64.925c0.025,0,0.048-0.004,0.072-0.004c0.109-0.001,0.218-0.011,0.327-0.017    c0.157-0.008,0.313-0.016,0.467-0.034c0.025-0.003,0.049-0.002,0.074-0.005c1.951-0.246,48.278-6.561,92.105-53.087    c0.968-1.028,2.751-0.427,2.751,1.027v130.529v132.291c0,4.142,3.358,7.5,7.5,7.5h49.686c4.142,0,7.5-3.358,7.5-7.5V359.897    C249.062,212.928,238.531,115.605,193.212,62.381z M210.407,484.095h-34.686v-117.29h34.686V484.095z M211.505,351.805h-35.783    V228.775c0-9.135-7.456-16.567-16.621-16.567c-4.578,0-8.857,1.866-12.049,5.254c-29.378,31.188-60.168,42.689-74.626,46.622    V28.005c49.416,1.311,85.244,15.774,109.366,44.102c19.852,23.314,32.607,57.197,37.911,100.706    C225.449,219.953,222.689,280.147,211.505,351.805z" data-original="#000000" class="active-path" data-old_color="#e95678" fill="#e95678"/>
	</g>
</g><g>
	<g>
		<path d="M447.074,12.907c-57.975,0-99.938,16.184-128.286,49.476c-45.32,53.223-55.85,150.546-32.195,297.515v131.698    c0,4.142,3.358,7.499,7.5,7.499h49.686c4.142,0,7.5-3.358,7.5-7.5v-132.29c0,0,0-130.203,0-130.528    c0-1.456,1.788-2.052,2.751-1.028c43.83,46.529,90.155,52.841,92.106,53.087c0.025,0.003,0.05,0.002,0.074,0.005    c0.155,0.018,0.313,0.026,0.47,0.034c0.107,0.006,0.214,0.015,0.322,0.016c0.025,0,0.048,0.004,0.073,0.004    c35.8,0,64.925-29.125,64.925-64.925V77.831C512,42.032,482.875,12.907,447.074,12.907z M336.279,484.095h-34.686v-117.29h34.686    V484.095z M497,215.969c0,24.98-18.442,45.734-42.425,49.363V103.904c0-4.025-3.468-7.5-7.5-7.5c-4.073,0-7.5,3.424-7.5,7.5    v160.18c-14.461-3.932-45.248-15.433-74.626-46.621c-4.708-4.999-11.866-6.596-18.237-4.068    c-6.337,2.515-10.433,8.552-10.433,15.381v123.029h-35.783c-11.184-71.656-13.944-131.852-8.198-178.992    c5.303-43.509,18.059-77.392,37.911-100.707c24.122-28.328,59.95-42.791,109.366-44.102c0,0,0,45.872,0,45.899    c0,3.997,3.442,7.5,7.5,7.5c3.999,0,7.5-3.503,7.5-7.5V28.469C478.558,32.097,497,52.852,497,77.831V215.969z" data-original="#000000" class="active-path" data-old_color="#e95678" fill="#e95678"/>
	</g>
</g></g> </svg>
