<?xml version="1.0"?>
<svg xmlns="http://www.w3.org/2000/svg" xmlns:xlink="http://www.w3.org/1999/xlink" version="1.1" id="Layer_1" x="0px" y="0px" viewBox="0 0 511.999 511.999" style="enable-background:new 0 0 511.999 511.999;" xml:space="preserve" width="512px" height="512px"><g><g>
	<g>
		<path d="M394.153,27.357c-1.307-5.683-6.972-9.226-12.657-7.924l-3.197,0.735c-5.683,1.307-9.231,6.973-7.923,12.657    c1.123,4.887,5.471,8.195,10.281,8.195c0.784,0,1.58-0.088,2.376-0.27l3.197-0.735C391.913,38.707,395.46,33.041,394.153,27.357z" data-original="#000000" class="active-path" data-old_color="#000000" fill="#F09483"/>
	</g>
</g><g>
	<g>
		<path d="M477.734,10.467c-0.002-0.21-0.017-0.421-0.032-0.633c-0.011-0.155-0.018-0.311-0.035-0.466    c-0.018-0.154-0.047-0.309-0.071-0.464c-0.033-0.209-0.065-0.417-0.11-0.621c-0.006-0.031-0.01-0.061-0.016-0.091    c-0.021-0.093-0.054-0.181-0.077-0.273c-0.058-0.223-0.116-0.446-0.188-0.662c-0.043-0.132-0.094-0.259-0.141-0.388    c-0.072-0.192-0.144-0.384-0.226-0.571c-0.068-0.153-0.143-0.3-0.216-0.449c-0.076-0.153-0.151-0.305-0.234-0.453    c-0.094-0.168-0.196-0.331-0.299-0.492c-0.077-0.121-0.152-0.243-0.234-0.36c-0.118-0.17-0.243-0.333-0.371-0.495    c-0.081-0.104-0.161-0.207-0.245-0.307c-0.134-0.158-0.275-0.309-0.417-0.459c-0.092-0.097-0.184-0.194-0.28-0.287    c-0.141-0.137-0.288-0.268-0.437-0.397c-0.111-0.096-0.221-0.192-0.335-0.284c-0.143-0.114-0.288-0.221-0.436-0.326    c-0.132-0.095-0.263-0.189-0.399-0.278c-0.14-0.092-0.285-0.176-0.43-0.261c-0.151-0.088-0.301-0.175-0.456-0.257    c-0.144-0.075-0.289-0.143-0.436-0.21c-0.162-0.075-0.323-0.149-0.489-0.216c-0.155-0.062-0.313-0.117-0.471-0.172    c-0.162-0.056-0.322-0.113-0.486-0.162c-0.178-0.053-0.361-0.096-0.543-0.139c-0.147-0.035-0.294-0.072-0.443-0.1    c-0.21-0.041-0.423-0.07-0.637-0.097c-0.129-0.017-0.255-0.036-0.385-0.049c-0.231-0.021-0.464-0.03-0.698-0.035    C467.367,0.012,467.276,0,467.182,0c-0.031,0-0.061,0.004-0.092,0.004c-0.207,0.002-0.416,0.017-0.624,0.032    c-0.159,0.011-0.32,0.018-0.478,0.036c-0.148,0.017-0.297,0.044-0.446,0.068c-0.215,0.034-0.431,0.068-0.642,0.114    c-0.029,0.006-0.057,0.008-0.087,0.015l-41.658,9.581c-5.683,1.306-9.231,6.973-7.923,12.656    c1.123,4.888,5.472,8.195,10.281,8.195c0.784,0,1.58-0.088,2.376-0.271l28.732-6.609v57.524l-280.896,64.609V88.429    l165.623-38.096c5.683-1.306,9.231-6.973,7.923-12.656c-1.307-5.684-6.973-9.233-12.657-7.923L162.797,69.736    c-0.088,0.02-0.171,0.051-0.258,0.073c-0.229,0.059-0.457,0.119-0.681,0.193c-0.127,0.042-0.25,0.091-0.375,0.137    c-0.196,0.073-0.393,0.147-0.583,0.231c-0.149,0.065-0.291,0.138-0.436,0.21c-0.157,0.078-0.314,0.155-0.467,0.242    c-0.163,0.091-0.319,0.19-0.476,0.289c-0.127,0.08-0.255,0.161-0.378,0.246c-0.163,0.113-0.318,0.232-0.473,0.354    c-0.112,0.088-0.224,0.174-0.332,0.265c-0.149,0.127-0.291,0.259-0.433,0.393c-0.107,0.101-0.213,0.202-0.316,0.307    c-0.128,0.132-0.248,0.268-0.369,0.405c-0.107,0.121-0.212,0.243-0.313,0.369c-0.104,0.13-0.201,0.264-0.298,0.398    c-0.104,0.145-0.208,0.289-0.305,0.44c-0.082,0.127-0.158,0.255-0.234,0.385c-0.097,0.165-0.193,0.331-0.281,0.502    c-0.067,0.129-0.127,0.259-0.188,0.39c-0.082,0.176-0.163,0.353-0.235,0.534c-0.057,0.141-0.107,0.285-0.156,0.429    c-0.061,0.174-0.121,0.347-0.174,0.525c-0.05,0.168-0.09,0.338-0.131,0.509c-0.038,0.157-0.077,0.314-0.108,0.474    c-0.039,0.203-0.067,0.408-0.094,0.613c-0.018,0.134-0.038,0.268-0.051,0.404c-0.021,0.229-0.029,0.46-0.035,0.692    c-0.002,0.094-0.014,0.186-0.014,0.28v310.878c-12.777-12.592-30.3-20.38-49.614-20.38c-39.002,0-70.732,31.73-70.732,70.73    c0,39.009,31.73,70.745,70.732,70.745s70.731-31.736,70.731-70.745v-273.63l280.897-64.609v218.422    c-12.777-12.592-30.3-20.38-49.614-20.38c-39.002,0-70.732,31.731-70.732,70.732c0,39.009,31.73,70.745,70.732,70.745    c39.002,0,70.731-31.736,70.731-70.745V10.559C477.739,10.528,477.734,10.499,477.734,10.467z M104.992,490.882    c-27.357,0-49.614-22.263-49.614-49.627c0-27.356,22.256-49.612,49.614-49.612s49.614,22.256,49.614,49.612    C154.606,468.619,132.349,490.882,104.992,490.882z M407.008,421.415c-27.357,0-49.613-22.263-49.613-49.627    c0-27.357,22.256-49.614,49.613-49.614c27.357,0,49.614,22.256,49.614,49.614C456.621,399.153,434.364,421.415,407.008,421.415z" data-original="#000000" class="active-path" data-old_color="#000000" fill="#F09483"/>
	</g>
</g></g> </svg>
