<?xml version="1.0"?>
<svg xmlns="http://www.w3.org/2000/svg" height="512px" viewBox="0 0 64 64" width="512px"><g><g id="Chat-Smartphone-Conversation-Message-Communication"><path d="m50 56a4 4 0 0 1 -4 4h-28a4 4 0 0 1 -4-4v-10h-2v10a6.006 6.006 0 0 0 6 6h28a6.006 6.006 0 0 0 6-6v-27h-2z" data-original="#000000" class="active-path" data-old_color="#000000" fill="#B877DB"/><path d="m14 8a4 4 0 0 1 4-4h28a4 4 0 0 1 4 4v1h2v-1a6.006 6.006 0 0 0 -6-6h-28a6.006 6.006 0 0 0 -6 6v18h2z" data-original="#000000" class="active-path" data-old_color="#000000" fill="#B877DB"/><path d="m27 55a3 3 0 0 0 3 3h4a3 3 0 0 0 0-6h-4a3 3 0 0 0 -3 3zm3-1h4a1 1 0 0 1 0 2h-4a1 1 0 0 1 0-2z" data-original="#000000" class="active-path" data-old_color="#000000" fill="#B877DB"/><path d="m25 6h2v2h-2z" data-original="#000000" class="active-path" data-old_color="#000000" fill="#B877DB"/><path d="m29 6h6v2h-6z" data-original="#000000" class="active-path" data-old_color="#000000" fill="#B877DB"/><path d="m23.241 49.651a1 1 0 0 0 1.759-.651v-5.062a8 8 0 0 0 -1-15.938h-14a8 8 0 0 0 0 16h8.4zm-19.241-13.651a6.006 6.006 0 0 1 6-6h14a6 6 0 0 1 0 12 1 1 0 0 0 -1 1v3.3l-3.384-3.948a1 1 0 0 0 -.759-.352h-8.857a6.006 6.006 0 0 1 -6-6z" data-original="#000000" class="active-path" data-old_color="#000000" fill="#B877DB"/><path d="m8 33h18v2h-18z" data-original="#000000" class="active-path" data-old_color="#000000" fill="#B877DB"/><path d="m8 37h14v2h-14z" data-original="#000000" class="active-path" data-old_color="#000000" fill="#B877DB"/><path d="m24 37h2v2h-2z" data-original="#000000" class="active-path" data-old_color="#000000" fill="#B877DB"/><path d="m54 11h-14a8 8 0 0 0 -1 15.938v5.062a1 1 0 0 0 1.759.651l4.841-5.651h8.4a8 8 0 0 0 0-16zm0 14h-8.857a1 1 0 0 0 -.759.349l-3.384 3.951v-3.3a1 1 0 0 0 -1-1 6 6 0 0 1 0-12h14a6 6 0 0 1 0 12z" data-original="#000000" class="active-path" data-old_color="#000000" fill="#B877DB"/><path d="m44 16h12v2h-12z" data-original="#000000" class="active-path" data-old_color="#000000" fill="#B877DB"/><path d="m38 20h18v2h-18z" data-original="#000000" class="active-path" data-old_color="#000000" fill="#B877DB"/><path d="m38 16h4v2h-4z" data-original="#000000" class="active-path" data-old_color="#000000" fill="#B877DB"/></g></g> </svg>
